<mxfile host="app.diagrams.net" modified="2023-05-15T11:43:56.115Z" agent="Mozilla/5.0 (Windows NT 10.0; Win64; x64; rv:109.0) Gecko/20100101 Firefox/113.0" version="21.2.9" etag="7SKHzAbNQH_Wok2_wrmp" type="github">
  <diagram name="第 1 页" id="0G1K5gs6s313UzA8-H6U">
    <mxGraphModel>
      <root>
        <mxCell id="0" />
        <mxCell id="1" parent="0" />
      </root>
    </mxGraphModel>
  </diagram>
</mxfile>
